<?xml version="1.0" standalone="no"?>
<!DOCTYPE svg PUBLIC "-//W3C//DTD SVG 20010904//EN"
 "http://www.w3.org/TR/2001/REC-SVG-20010904/DTD/svg10.dtd">
<svg version="1.0" xmlns="http://www.w3.org/2000/svg"
 width="147.000000pt" height="126.000000pt" viewBox="0 0 147.000000 126.000000"
 preserveAspectRatio="xMidYMid meet">

<g transform="translate(0.000000,126.000000) scale(0.100000,-0.100000)"
fill="#000000" stroke="none">
<path d="M510 1139 c-17 -11 -39 -38 -49 -60 -12 -25 -31 -46 -51 -57 -19 -9
-43 -30 -54 -45 -20 -27 -21 -41 -21 -355 l0 -327 31 -65 c38 -79 98 -141 173
-178 49 -23 68 -27 146 -27 132 0 163 19 379 227 145 140 177 176 186 209 24
88 -46 184 -132 181 -24 0 -52 -2 -63 -4 -19 -3 -20 4 -25 177 -4 153 -8 185
-24 211 -20 33 -72 64 -107 64 -12 0 -39 15 -61 34 l-39 34 -129 0 c-108 0
-133 -3 -160 -19z m136 -70 c17 -19 19 -41 22 -221 2 -149 6 -198 15 -195 9 3
13 64 15 220 l2 217 39 0 c57 0 73 -23 73 -107 -1 -163 10 -334 22 -330 7 2
13 61 16 183 l5 179 30 3 c20 2 38 -4 53 -18 22 -20 22 -25 22 -260 l0 -240
-72 0 c-101 0 -145 -15 -194 -64 -42 -42 -72 -111 -61 -140 11 -27 24 -18 32
22 18 95 82 142 196 142 80 0 87 3 172 73 67 56 124 52 148 -11 7 -17 4 -33
-7 -55 -24 -46 -311 -320 -364 -348 -60 -32 -185 -34 -245 -4 -54 26 -113 87
-139 144 -20 44 -21 60 -21 357 0 249 3 314 14 327 19 24 78 22 91 -2 5 -11
10 -81 10 -155 0 -114 2 -136 15 -136 13 0 15 30 15 213 0 118 3 217 7 220 15
15 71 6 89 -14z"/>
</g>
</svg>
