<?xml version="1.0" standalone="no"?>
<!DOCTYPE svg PUBLIC "-//W3C//DTD SVG 20010904//EN"
 "http://www.w3.org/TR/2001/REC-SVG-20010904/DTD/svg10.dtd">
<svg version="1.0" xmlns="http://www.w3.org/2000/svg"
 width="324.000000pt" height="109.000000pt" viewBox="0 0 324.000000 109.000000"
 preserveAspectRatio="xMidYMid meet">

<g transform="translate(0.000000,109.000000) scale(0.100000,-0.100000)"
fill="#0000FF" stroke="none">
<path d="M1427 921 c-15 -8 -31 -28 -38 -43 -6 -15 -20 -30 -31 -34 -11 -3
-28 -20 -39 -37 -17 -29 -19 -52 -19 -233 0 -230 10 -282 66 -344 48 -53 110
-80 182 -80 81 0 117 22 261 158 128 120 144 147 124 209 -12 36 -67 66 -110
58 l-31 -6 -4 125 c-3 141 -16 173 -80 191 -18 5 -46 20 -61 31 -23 19 -40 22
-111 22 -58 -1 -92 -6 -109 -17z m77 -32 c32 -15 36 -32 36 -176 0 -181 19
-156 22 30 l3 152 25 -3 c44 -4 50 -25 50 -169 0 -82 4 -133 10 -133 6 0 10
48 10 124 0 134 5 145 51 122 24 -11 24 -13 27 -189 l2 -177 -65 0 c-78 0
-115 -16 -144 -63 -22 -36 -28 -77 -11 -77 6 0 10 11 10 24 0 29 33 72 70 91
16 8 52 15 81 15 45 0 57 5 101 40 28 22 54 40 58 40 18 0 60 -44 60 -63 0
-27 -220 -241 -275 -267 -95 -46 -206 -6 -256 92 -17 33 -19 61 -19 262 0 215
1 226 20 236 14 8 26 8 40 0 18 -10 20 -21 20 -110 0 -60 4 -100 10 -100 6 0
10 56 10 149 0 110 3 151 13 154 6 3 13 6 14 6 1 1 13 -4 27 -10z"/>
<path d="M2686 915 c-14 -13 -26 -34 -26 -46 0 -19 -2 -19 -29 10 -39 42 -99
44 -130 5 -28 -35 -26 -69 4 -138 26 -58 25 -76 0 -76 -8 0 -20 -8 -27 -18 -7
-11 -30 -22 -50 -26 -66 -12 -78 -40 -78 -175 0 -106 2 -122 26 -169 47 -94
129 -139 238 -130 74 6 141 48 181 112 l30 49 3 287 3 288 -31 26 c-40 33 -79
33 -114 1z m94 -46 c11 -20 14 -409 3 -409 -3 0 -15 8 -25 17 -13 12 -42 19
-89 21 l-69 4 0 64 c0 52 -8 82 -42 165 -43 105 -44 129 -4 137 28 6 52 -24
76 -95 57 -170 70 -173 70 -19 0 106 2 116 21 130 24 17 45 12 59 -15z m-200
-299 l0 -70 -45 0 -45 0 0 44 c0 52 30 96 66 96 23 0 24 -3 24 -70z m-100 -25
c0 -25 -4 -45 -9 -45 -19 0 -41 -32 -41 -59 0 -38 27 -59 80 -63 l45 -3 6 -50
6 -50 1 63 2 62 -55 0 c-44 0 -56 4 -65 20 -8 14 -8 26 0 40 10 18 21 20 141
20 144 0 169 -8 188 -61 21 -61 -14 -146 -82 -194 -36 -26 -51 -30 -107 -30
-70 0 -102 15 -151 67 -36 39 -49 91 -49 197 0 101 15 131 65 131 23 0 25 -4
25 -45z"/>
<path d="M353 790 c-17 -10 -37 -28 -43 -39 -7 -14 -21 -21 -39 -21 -34 0 -76
-31 -96 -70 -24 -46 -21 -240 4 -288 21 -41 66 -72 104 -72 17 0 28 -7 32 -21
10 -29 80 -59 142 -59 44 0 55 -4 68 -23 23 -35 58 -47 136 -47 86 0 110 12
182 90 l57 61 0 126 0 125 -40 40 c-33 34 -40 47 -40 81 0 28 -8 51 -26 75
-42 54 -73 62 -251 62 -139 0 -162 -2 -190 -20z m367 -35 c57 -29 60 -42 60
-246 0 -173 -1 -188 -21 -213 -17 -22 -28 -26 -70 -26 l-49 0 -2 133 -2 132
-3 -132 -4 -133 -69 0 -70 0 0 125 c0 77 -4 125 -10 125 -6 0 -10 -48 -10
-125 l0 -125 -42 0 c-29 0 -49 7 -65 22 -21 20 -23 30 -23 124 0 58 -4 106
-10 109 -6 4 -10 -27 -10 -84 l0 -91 -32 0 c-19 0 -41 9 -55 22 -22 20 -23 29
-23 149 0 126 0 128 26 148 16 13 41 21 64 21 32 0 39 4 44 25 11 44 47 54
204 55 108 0 150 -4 172 -15z m120 -202 c20 -25 21 -38 18 -136 l-3 -109 -63
-59 -63 -59 -66 0 c-55 0 -71 4 -90 22 -13 12 -23 25 -23 30 0 4 38 8 85 8 96
0 134 14 153 55 7 16 12 75 12 150 0 70 4 125 9 125 5 0 19 -12 31 -27z"/>
</g>
</svg>
