<?xml version="1.0" standalone="no"?>
<!DOCTYPE svg PUBLIC "-//W3C//DTD SVG 20010904//EN"
 "http://www.w3.org/TR/2001/REC-SVG-20010904/DTD/svg10.dtd">
<svg version="1.0" xmlns="http://www.w3.org/2000/svg"
 width="147.000000pt" height="126.000000pt" viewBox="0 0 147.000000 126.000000"
 preserveAspectRatio="xMidYMid meet">

<g transform="translate(0.000000,126.000000) scale(0.100000,-0.100000)"
fill="#000000" stroke="none">
<path d="M445 986 c-31 -14 -95 -71 -95 -86 0 -4 -19 -11 -43 -14 -58 -9 -101
-37 -134 -87 -27 -41 -28 -48 -32 -195 -4 -184 9 -245 64 -292 32 -28 88 -52
125 -52 8 0 25 -15 37 -34 33 -52 94 -76 190 -76 80 0 81 0 107 -35 44 -57 91
-75 197 -75 120 0 153 16 257 124 92 96 102 123 102 281 0 145 -13 191 -71
248 -45 44 -49 52 -49 95 -1 91 -63 175 -149 201 -56 16 -467 14 -506 -3z
m505 -74 c19 -9 45 -32 57 -51 22 -33 23 -40 23 -301 0 -251 -1 -269 -20 -292
-26 -34 -68 -50 -121 -46 l-44 3 -3 183 c-2 153 -5 182 -17 182 -13 0 -15 -28
-15 -185 l0 -185 -95 0 -95 0 0 185 c0 158 -2 185 -15 185 -13 0 -15 -27 -15
-185 l0 -185 -50 0 c-28 0 -64 7 -80 15 -51 26 -60 58 -60 215 0 116 -2 140
-15 140 -12 0 -15 -23 -17 -127 l-3 -128 -43 1 c-84 2 -112 58 -111 224 1 207
21 248 126 257 57 5 60 7 72 40 25 67 48 73 291 73 185 0 220 -2 250 -18z
m164 -283 c26 -30 26 -33 26 -186 l0 -155 -72 -75 c-40 -41 -85 -81 -100 -89
-17 -9 -59 -14 -114 -14 l-86 0 -37 38 -36 37 141 5 c161 6 183 15 215 83 16
36 19 67 19 215 0 96 4 172 9 172 5 0 21 -14 35 -31z"/>
</g>
</svg>
