<?xml version="1.0" standalone="no"?>
<!DOCTYPE svg PUBLIC "-//W3C//DTD SVG 20010904//EN"
 "http://www.w3.org/TR/2001/REC-SVG-20010904/DTD/svg10.dtd">
<svg version="1.0" xmlns="http://www.w3.org/2000/svg"
 width="147.000000pt" height="126.000000pt" viewBox="0 0 147.000000 126.000000"
 preserveAspectRatio="xMidYMid meet">

<g transform="translate(0.000000,126.000000) scale(0.100000,-0.100000)"
fill="#000000" stroke="none">
<path d="M895 1188 c-31 -18 -54 -50 -61 -86 l-6 -33 -25 35 c-25 38 -69 66
-103 66 -65 0 -130 -63 -130 -125 0 -16 17 -70 37 -119 36 -86 36 -90 18 -100
-11 -6 -32 -23 -48 -38 -17 -17 -40 -28 -56 -28 -33 0 -86 -34 -115 -73 -18
-24 -22 -46 -25 -149 -5 -190 23 -288 108 -375 23 -23 67 -54 99 -70 49 -24
69 -28 142 -28 76 0 93 4 152 33 74 36 133 96 170 170 23 46 23 53 26 441 3
425 2 435 -48 471 -32 22 -103 26 -135 8z m94 -65 c20 -17 21 -27 21 -303 1
-157 1 -289 1 -293 -1 -5 -16 2 -33 15 -27 19 -50 24 -128 28 l-95 5 -6 105
c-5 97 -10 114 -53 214 -61 139 -66 168 -35 190 29 20 53 20 72 1 14 -14 25
-39 98 -233 23 -63 35 -82 47 -80 15 3 18 25 22 173 5 169 5 170 30 182 32 16
34 16 59 -4z m-274 -453 l0 -95 -55 0 -55 0 -3 66 c-2 54 1 70 18 91 19 25 47
37 80 34 12 -1 15 -19 15 -96z m-145 -40 c0 -35 -4 -60 -10 -60 -6 0 -22 -11
-35 -25 -33 -32 -33 -84 -2 -120 19 -23 33 -28 90 -32 l67 -6 0 -68 c0 -55 3
-69 15 -69 13 0 15 14 13 88 l-3 87 -75 3 c-56 2 -78 7 -87 19 -20 26 -16 71
6 83 12 6 95 10 202 10 l181 0 40 -40 41 -40 -5 -75 c-4 -59 -11 -83 -33 -117
-55 -85 -128 -129 -226 -136 -56 -4 -75 -1 -120 20 -76 35 -114 70 -146 136
-25 50 -28 69 -31 184 -3 70 -1 139 2 153 10 40 42 65 81 65 l35 0 0 -60z"/>
</g>
</svg>
